# xmcd CD database file
#
# Track frame offsets:
#	150
#	13391
#	26166
#	38369
#	49593
#	61725
#	73089
#	86191
#	97138
#	109901
#	121995
#	134943
#	148007
#	160457
#	173159
#	186047
#	198661
#	211031
#	222703
#	235301
#	246909
#	260344
#	272072
#	284114
#	297604
#
# Disc length: 4132 seconds
#
# Revision: 0
# Processed by: cddbd v1.5.1PL0 Copyright (c) Steve Scherf et al.
# Submitted via: CDex 1.51
#
DISCID=9d102219
DTITLE=Memphis Minnie - Queen of the Delta Blues, Volume 2, Disc B
DYEAR=2004
DGENRE=Blues
TTITLE0=Little Son Joe - Tuff Luck Blues
TTITLE1=Little Son Joe - Key to the World
TTITLE2=Black Widow Stinger
TTITLE3=Good Soppin'
TTITLE4=Poor and Wandering Woman Blues
TTITLE5=Bad Outside Friends
TTITLE6=Worried Baby Blues
TTITLE7=Call the Fire Wagon
TTITLE8=Low Down Man Blues
TTITLE9=Don't Lead My Baby Wrong
TTITLE10=Keep Your Big Mouth Closed
TTITLE11=Lonesome Shack Blues
TTITLE12=Nothing in Rambling
TTITLE13=Boy Friend Blues
TTITLE14=Finger Print Blues
TTITLE15=It's Hard to Please My Man
TTITLE16=Ma Rainey
TTITLE17=In My Girlish Days
TTITLE18=Me and My Chauffeur Blues
TTITLE19=Down by the Riverside
TTITLE20=I Got to Make a Change Blues
TTITLE21=Pig Meat on the Line
TTITLE22=My Gage Is Going Up
TTITLE23=This Is Your Last Chance
TTITLE24=Can't Afford to Lose My Man
EXTD=YEAR: 2004
EXTT0=
EXTT1=
EXTT2=
EXTT3=
EXTT4=
EXTT5=
EXTT6=
EXTT7=
EXTT8=
EXTT9=
EXTT10=
EXTT11=
EXTT12=
EXTT13=
EXTT14=
EXTT15=
EXTT16=
EXTT17=
EXTT18=
EXTT19=
EXTT20=
EXTT21=
EXTT22=
EXTT23=
EXTT24=
PLAYORDER=
